<svg width="178" height="25" viewBox="0 0 178 25" fill="none" xmlns="http://www.w3.org/2000/svg">
<path d="M88.798 5.07153H73.855V19.646H88.798V5.07153Z" fill="white"/>
<path d="M12.3033 22.4923C3.51628 22.4923 2.8335 16.5313 2.8335 14.7043C2.8335 13.935 3.22387 13.2568 3.81744 12.8571C3.33829 12.0152 3.04588 10.9639 3.04588 9.64705C3.04588 5.13859 6.65249 2.22559 12.2343 2.22559C17.7421 2.22559 21.3008 5.22841 21.3008 9.87558C21.3008 10.4797 21.0601 11.0277 20.6693 11.4286C21.3279 12.3542 21.7466 13.5557 21.7466 15.1237C21.7466 18.6859 19.2659 22.4923 12.3033 22.4923Z" fill="white"/>
<path d="M12.2347 4.45102C16.5547 4.45102 19.0756 6.47897 19.0756 9.87549H14.299C14.299 8.86114 13.4978 8.25083 12.1549 8.25083C11.062 8.25083 10.3187 8.65949 10.3187 9.23299C10.3187 9.97593 11.0194 10.0771 12.9673 10.3532L13.3387 10.4007C15.8221 10.7564 19.5215 11.2816 19.5215 15.1236C19.5215 18.3668 16.8836 20.2667 12.3037 20.2667C7.49027 20.2667 5.05942 18.1598 5.05942 14.7042H9.83602C9.83602 15.819 10.7434 16.4669 12.2983 16.4669C13.6094 16.4669 14.4903 16.0099 14.4903 15.3575C14.4903 14.5716 13.7474 14.4819 11.7888 14.2373L11.2583 14.1683C8.91252 13.8769 5.27179 13.42 5.27179 9.64701C5.27179 6.31412 8.10594 4.45102 12.2347 4.45102ZM12.2347 0C9.22849 0 6.58946 0.756568 4.60294 2.18794C2.16397 3.94529 0.820768 6.59432 0.820768 9.64701C0.820768 10.6363 0.961413 11.5667 1.23508 12.4256C0.837107 13.0921 0.608398 13.8715 0.608398 14.7042C0.608398 17.792 1.85251 20.4786 4.11155 22.2694C6.16105 23.894 8.91727 24.7177 12.3037 24.7177C15.5263 24.7177 18.1891 23.9826 20.218 22.5328C22.6391 20.8026 23.9725 18.1713 23.9725 15.1236C23.9725 13.7935 23.7193 12.5658 23.2317 11.4722C23.4223 10.9765 23.5267 10.4383 23.5267 9.8755C23.5267 6.84556 22.291 4.19326 20.0473 2.40717C18.069 0.832386 15.3674 0 12.2347 0Z" fill="white"/>
<path d="M23.6098 22.1733C22.3807 22.1733 21.3843 21.1769 21.3843 19.9478V11.0282H19.5658C18.3367 11.0282 17.3403 10.0318 17.3403 8.80277V4.76991C17.3403 3.54083 18.3367 2.54443 19.5658 2.54443H32.6958C33.9248 2.54443 34.9212 3.54083 34.9212 4.76991V8.80277C34.9212 10.0318 33.9248 11.0282 32.6958 11.0282H30.8771V19.9478C30.8771 21.1769 29.8807 22.1733 28.6516 22.1733H23.6098Z" fill="white"/>
<path d="M32.6957 4.76999V8.80288H28.6517V19.9478H23.6098V8.80288H19.5658V4.76999H32.6957ZM32.6957 0.318973H19.5658C17.1075 0.318973 15.1147 2.31176 15.1147 4.76999V8.80288C15.1147 11.1238 16.8914 13.0299 19.1587 13.2355V19.9478C19.1587 22.406 21.1515 24.3988 23.6098 24.3988H28.6517C31.1099 24.3988 33.1027 22.406 33.1027 19.9478V13.2355C35.3703 13.0301 37.1467 11.124 37.1467 8.80288V4.76999C37.1467 2.31176 35.1539 0.318973 32.6957 0.318973Z" fill="white"/>
<path d="M41.6472 22.1733C40.5921 22.1733 39.6821 21.4325 39.4679 20.3994L39.2891 19.5358H38.8203L38.6335 20.4118C38.4146 21.439 37.5073 22.1733 36.457 22.1733H31.1762C30.4716 22.1733 29.8088 21.8398 29.389 21.2739C28.9691 20.7082 28.8421 19.9771 29.0462 19.3028L33.6422 4.12491C33.9265 3.18632 34.7916 2.54443 35.7723 2.54443H42.5121C43.4965 2.54443 44.364 3.19106 44.645 4.13455L49.1666 19.3124C49.3673 19.9859 49.238 20.7146 48.818 21.2779C48.398 21.8414 47.7366 22.1733 47.0338 22.1733L41.6472 22.1733Z" fill="white"/>
<path d="M42.512 4.76999L47.0336 19.9478H41.6471L41.1005 17.3103H37.0193L36.4569 19.9478H31.1762L35.7722 4.76999H42.512ZM37.8312 13.489H40.3096L39.0836 7.59302L37.8312 13.489ZM42.512 0.318973H35.7722C33.8108 0.318973 32.0806 1.60282 31.5122 3.48001L26.9162 18.6578C26.5078 20.0063 26.7621 21.4686 27.6017 22.6001C28.4413 23.7316 29.7671 24.3988 31.1762 24.3988H36.4569C37.4162 24.3988 38.3158 24.0926 39.052 23.564C39.788 24.0925 40.6875 24.3988 41.6471 24.3988H47.0336C48.4391 24.3988 49.7621 23.735 50.6021 22.6082C51.4422 21.4813 51.7007 20.0239 51.2994 18.677L46.7777 3.49917C46.2156 1.61235 44.4807 0.318973 42.512 0.318973Z" fill="white"/>
<path d="M53.7921 22.4923C47.951 22.4923 43.8716 18.3253 43.8716 12.3589C43.8716 6.39257 47.951 2.22559 53.7921 2.22559C58.9616 2.22559 62.6979 5.64427 63.3107 10.9351C63.3688 11.4355 63.255 11.9366 62.9946 12.3589C63.255 12.7813 63.3688 13.2824 63.3107 13.7828C62.6979 19.0736 58.9616 22.4923 53.7921 22.4923ZM53.6442 13.9459C53.6691 13.9493 53.703 13.9526 53.7471 13.9539C53.7932 13.832 53.8569 13.611 53.904 13.2436C53.9454 12.9206 54.0547 12.6211 54.2166 12.3589C54.0547 12.0968 53.9454 11.7972 53.904 11.4743C53.8569 11.1067 53.7932 10.8858 53.7471 10.7638C53.703 10.7651 53.6691 10.7684 53.6442 10.7718C53.5772 10.9041 53.4173 11.3286 53.4173 12.3589C53.4173 13.3891 53.5772 13.8136 53.6442 13.9459Z" fill="white"/>
<path d="M53.7921 4.45102C57.8572 4.45102 60.617 7.02027 61.1 11.1912H56.1114C55.8779 9.371 55.1454 8.53758 53.7921 8.53758C52.0513 8.53758 51.1918 9.72675 51.1918 12.3589C51.1918 14.991 52.0513 16.1802 53.7921 16.1802C55.1454 16.1802 55.8779 15.3467 56.1114 13.5266H61.1C60.617 17.6975 57.8572 20.2667 53.7921 20.2667C49.3609 20.2667 46.097 17.2144 46.097 12.3589C46.097 7.50252 49.3609 4.45102 53.7921 4.45102ZM53.7921 0C46.7542 0 41.646 5.19765 41.646 12.3589C41.646 19.5201 46.7542 24.7177 53.7921 24.7177C56.9235 24.7177 59.6965 23.6842 61.8112 21.7287C63.8771 19.8185 65.1601 17.1592 65.5215 14.0386C65.5874 13.4694 65.5422 12.8998 65.3951 12.3589C65.5422 11.8179 65.5874 11.2483 65.5215 10.6791C65.1601 7.55849 63.8771 4.89928 61.8112 2.98899C59.6965 1.03358 56.9236 0 53.7921 0Z" fill="white"/>
<path d="M70.1606 22.1733C69.5444 22.1733 68.9631 21.9183 68.5474 21.481C68.1421 21.9074 67.5692 22.1733 66.9343 22.1733H61.8925C60.6634 22.1733 59.667 21.1769 59.667 19.9478V4.76991C59.667 3.54083 60.6634 2.54443 61.8925 2.54443H66.9343C67.5692 2.54443 68.1421 2.81017 68.5474 3.23671C68.9619 2.80054 69.5426 2.54443 70.1606 2.54443H75.7864C76.6062 2.54443 77.3596 2.99513 77.7474 3.71749C78.1351 4.4397 78.0942 5.31679 77.6411 5.99988L73.5039 12.2382L77.9845 18.6766C78.4579 19.3567 78.5142 20.2437 78.1305 20.9783C77.7466 21.7128 76.9866 22.1733 76.1578 22.1733H70.1606Z" fill="white"/>
<path d="M75.7864 4.76999L70.8135 12.2684L76.1578 19.9478H70.1606L66.9343 14.7786V19.9478H61.8924V4.76999H66.9343V10.6284L70.1606 4.76999H75.7864ZM75.7864 0.318973H70.1606C69.6001 0.318973 69.0549 0.424342 68.549 0.620907C68.0485 0.425957 67.5039 0.318973 66.9343 0.318973H61.8924C59.4342 0.318973 57.4414 2.31176 57.4414 4.76999V19.9478C57.4414 22.406 59.4342 24.3988 61.8924 24.3988H66.9343C67.5039 24.3988 68.0485 24.2918 68.5491 24.0968C69.0555 24.2936 69.6009 24.3988 70.1606 24.3988H76.1578C77.8153 24.3988 79.3355 23.4778 80.103 22.0087C80.8704 20.5396 80.758 18.7657 79.8112 17.4053L76.1944 12.2081L79.4958 7.23005C80.402 5.86363 80.4836 4.10967 79.7082 2.66501C78.9328 1.22036 77.426 0.318973 75.7864 0.318973Z" fill="white"/>
<path d="M91.341 22.1733C90.286 22.1733 89.3759 21.4325 89.1617 20.3995L88.9827 19.5358H88.5138L88.3269 20.4121C88.1077 21.4392 87.2005 22.1733 86.1503 22.1733H80.8696C80.165 22.1733 79.5022 21.8398 79.0823 21.2739C78.6625 20.7082 78.5355 19.9771 78.7395 19.3028L83.3356 4.12491C83.6198 3.18632 84.4849 2.54443 85.4656 2.54443H92.2058C93.1902 2.54443 94.0576 3.19106 94.3386 4.13455L98.86 19.3124C99.0606 19.9859 98.9314 20.7146 98.5114 21.2779C98.0914 21.8414 97.4299 22.1733 96.7271 22.1733L91.341 22.1733Z" fill="white"/>
<path d="M92.2052 4.76999L96.7265 19.9478H91.3404L90.7937 17.3103H86.7125L86.1498 19.9478H80.869L85.4651 4.76999H92.2052ZM87.5245 13.489H90.0025L88.7765 7.59301L87.5245 13.489ZM92.2052 0.31897H85.4651C83.5037 0.31897 81.7735 1.60282 81.2051 3.48001L76.609 18.6578C76.2007 20.0063 76.4549 21.4686 77.2946 22.6001C78.1342 23.7316 79.46 24.3988 80.869 24.3988H86.1498C87.1091 24.3988 88.0089 24.0924 88.7451 23.5639C89.4811 24.0923 90.3808 24.3988 91.3404 24.3988H96.7265C98.132 24.3988 99.4549 23.735 100.295 22.6082C101.135 21.4814 101.394 20.024 100.992 18.6771L96.471 3.49927C95.9089 1.6124 94.174 0.31897 92.2052 0.31897Z" fill="white"/>
<path d="M102.154 22.1733C100.925 22.1733 99.9287 21.1769 99.9287 19.9478V4.76991C99.9287 3.54083 100.925 2.54443 102.154 2.54443H112.992C114.221 2.54443 115.217 3.54083 115.217 4.76991V8.80277C115.217 9.40108 114.981 9.94441 114.597 10.3443C114.621 10.4744 114.633 10.6087 114.633 10.7456V14.5662C114.633 15.7953 113.637 16.7917 112.407 16.7917H109.422V19.9478C109.422 21.1769 108.425 22.1733 107.196 22.1733H102.154Z" fill="white"/>
<path d="M112.992 4.76999V8.80288H107.197V10.7457H112.408V14.5662H107.197V19.9478H102.155V4.76999H112.992ZM112.992 0.318973H102.155C99.6964 0.318973 97.7036 2.31176 97.7036 4.76999V19.9478C97.7036 22.406 99.6964 24.3988 102.155 24.3988H107.197C109.655 24.3988 111.648 22.406 111.648 19.9478V19.0173H112.408C114.866 19.0173 116.859 17.0245 116.859 14.5662V11.0088C117.231 10.3586 117.443 9.60558 117.443 8.80288V4.76999C117.443 2.31176 115.45 0.318973 112.992 0.318973Z" fill="white"/>
<path d="M122.342 22.1733C121.287 22.1733 120.377 21.4325 120.163 20.3995L119.984 19.5358H119.516L119.329 20.4115C119.11 21.4389 118.203 22.1733 117.152 22.1733H111.871C111.166 22.1733 110.504 21.8396 110.084 21.2739C109.664 20.7082 109.537 19.977 109.741 19.3028L114.337 4.12491C114.622 3.18632 115.487 2.54443 116.468 2.54443H123.207C124.191 2.54443 125.058 3.19106 125.34 4.1344L129.862 19.3123C130.063 19.9859 129.933 20.7145 129.513 21.2779C129.093 21.8414 128.432 22.1733 127.729 22.1733H122.342Z" fill="white"/>
<path d="M123.207 4.76999L127.729 19.9478H122.342L121.796 17.3103H117.715L117.153 19.9478H111.871L116.468 4.76999H123.207ZM118.527 13.489H121.005L119.779 7.59301L118.527 13.489ZM123.207 0.31897H116.468C114.507 0.31897 112.776 1.60277 112.208 3.47991L107.612 18.6577C107.203 20.0062 107.457 21.4685 108.297 22.6001C109.137 23.7316 110.462 24.3988 111.871 24.3988H117.153C118.112 24.3988 119.011 24.0925 119.748 23.5641C120.483 24.0925 121.383 24.3988 122.342 24.3988H127.729C129.135 24.3988 130.458 23.7349 131.298 22.6081C132.138 21.4813 132.396 20.0238 131.995 18.6769L127.473 3.49907C126.911 1.6123 125.176 0.31897 123.207 0.31897Z" fill="white"/>
<path d="M134.487 22.4923C128.646 22.4923 124.566 18.3253 124.566 12.3589C124.566 6.39257 128.646 2.22559 134.487 2.22559C139.657 2.22559 143.393 5.64427 144.006 10.9353C144.064 11.4356 143.95 11.9366 143.69 12.3589C143.95 12.7813 144.064 13.2823 144.006 13.7826C143.393 19.0736 139.657 22.4923 134.487 22.4923ZM134.339 13.9459C134.364 13.9495 134.398 13.9526 134.442 13.9539C134.488 13.8321 134.551 13.6113 134.599 13.244C134.64 12.9209 134.749 12.6213 134.911 12.3589C134.749 12.0966 134.64 11.7969 134.599 11.4738C134.551 11.1064 134.488 10.8856 134.442 10.7638C134.398 10.7651 134.364 10.7682 134.339 10.7718C134.272 10.9043 134.112 11.3289 134.112 12.3589C134.112 13.389 134.272 13.8134 134.339 13.9459Z" fill="white"/>
<path d="M134.487 4.45102C138.552 4.45102 141.312 7.02027 141.795 11.1912H136.806C136.573 9.371 135.84 8.53758 134.487 8.53758C132.746 8.53758 131.887 9.72675 131.887 12.3589C131.887 14.991 132.746 16.1802 134.487 16.1802C135.84 16.1802 136.573 15.3467 136.806 13.5266H141.795C141.312 17.6975 138.552 20.2667 134.487 20.2667C130.056 20.2667 126.792 17.2144 126.792 12.3589C126.792 7.50252 130.056 4.45102 134.487 4.45102ZM134.487 0C127.449 0 122.341 5.19765 122.341 12.3589C122.341 19.5201 127.449 24.7177 134.487 24.7177C137.618 24.7177 140.391 23.6842 142.506 21.7289C144.572 19.8185 145.855 17.1593 146.216 14.0386C146.282 13.4694 146.237 12.8998 146.09 12.3589C146.237 11.8179 146.282 11.2483 146.216 10.6791C145.855 7.55845 144.572 4.89922 142.506 2.98888C140.391 1.03354 137.618 0 134.487 0Z" fill="white"/>
<path d="M145.994 22.1733C144.765 22.1733 143.768 21.1769 143.768 19.9478V11.0282H141.951C140.721 11.0282 139.725 10.0318 139.725 8.80277V4.76991C139.725 3.54083 140.721 2.54443 141.951 2.54443H155.08C156.309 2.54443 157.306 3.54083 157.306 4.76991V8.80277C157.306 10.0318 156.309 11.0282 155.08 11.0282H153.261V19.9478C153.261 21.1769 152.265 22.1733 151.036 22.1733H145.994Z" fill="white"/>
<path d="M155.08 4.76999V8.80288H151.036V19.9478H145.994V8.80288H141.951V4.76999H155.08ZM155.08 0.31897H141.951C139.492 0.31897 137.5 2.31176 137.5 4.76999V8.80288C137.5 11.1238 139.276 13.0298 141.543 13.2355V19.9478C141.543 22.406 143.536 24.3988 145.994 24.3988H151.036C153.494 24.3988 155.487 22.406 155.487 19.9478V13.2356C157.755 13.0301 159.531 11.124 159.531 8.80288V4.76999C159.531 2.31176 157.539 0.31897 155.08 0.31897Z" fill="white"/>
<path d="M168.47 5.54188H166.836V10.4441H164.62V5.54188H162.99V3.76758H168.47L168.47 5.54188ZM177.392 3.76758V10.4441H175.176V5.61393L174.204 10.4441H172.243L171.272 5.61393V10.4441H169.171V3.76758H172.592L173.364 7.80398L174.136 3.76758H177.392Z" fill="white"/>
<path d="M19.0758 9.52698H14.2992C14.2992 8.51339 13.498 7.90309 12.1551 7.90309C11.0621 7.90309 10.3188 8.31175 10.3188 8.88448C10.3188 9.62819 11.0196 9.72863 12.9674 10.0046L13.3389 10.0522C15.8223 10.4079 19.5216 10.9331 19.5216 14.7759C19.5216 18.0183 16.8838 19.9182 12.3038 19.9182C7.49043 19.9182 5.05957 17.8113 5.05957 14.3565H9.83618C9.83618 15.4713 10.7436 16.1184 12.2985 16.1184C13.6095 16.1184 14.4905 15.6622 14.4905 15.009C14.4905 14.2238 13.7475 14.1334 11.789 13.8896L11.2584 13.8206C8.91267 13.5284 5.27195 13.0722 5.27195 9.2985C5.27195 5.96561 8.10609 4.10327 12.2348 4.10327C16.5549 4.10327 19.0758 6.13045 19.0758 9.52698Z" fill="#231F20"/>
<path d="M32.6958 8.45517H28.6518V19.6001H23.6099V8.45517H19.5659V4.42151H32.6958V8.45517Z" fill="#231F20"/>
<path d="M31.1763 19.6001L35.7723 4.42151H42.5121L47.0338 19.6001H41.6472L41.1006 16.9626H37.0194L36.457 19.6001H31.1763ZM40.3097 13.1413L39.0837 7.2453L37.8313 13.1413H40.3097Z" fill="#231F20"/>
<path d="M53.7923 15.8316C55.1455 15.8316 55.8781 14.9982 56.1116 13.1781H61.1002C60.6171 17.3497 57.8574 19.9182 53.7923 19.9182C49.3611 19.9182 46.0972 16.8667 46.0972 12.0104C46.0972 7.15478 49.3611 4.10327 53.7923 4.10327C57.8574 4.10327 60.6171 6.67175 61.1002 10.8434H56.1116C55.8781 9.02248 55.1455 8.18984 53.7923 8.18984C52.0514 8.18984 51.192 9.37824 51.192 12.0104C51.192 14.6432 52.0514 15.8316 53.7923 15.8316Z" fill="#231F20"/>
<path d="M70.8136 11.9207L76.158 19.6001H70.1608L66.9345 14.4309V19.6001H61.8926V4.42151H66.9345V10.2807L70.1608 4.42151H75.7865L70.8136 11.9207Z" fill="#231F20"/>
<path d="M80.8691 19.6001L85.4652 4.42151H92.2053L96.7266 19.6001H91.3405L90.7934 16.9626H86.7122L86.1499 19.6001H80.8691ZM90.0026 13.1413L88.7766 7.2453L87.5242 13.1413H90.0026Z" fill="#231F20"/>
<path d="M112.991 8.45517H107.197V10.3973H112.408V14.2185H107.197V19.6001H102.155V4.42151H112.991V8.45517Z" fill="#231F20"/>
<path d="M111.871 19.6001L116.467 4.42151H123.206L127.728 19.6001H122.342L121.795 16.9626H117.714L117.151 19.6001H111.871ZM121.004 13.1413L119.778 7.2453L118.526 13.1413H121.004Z" fill="#231F20"/>
<path d="M134.487 15.8316C135.84 15.8316 136.572 14.9982 136.806 13.1781H141.795C141.312 17.3497 138.552 19.9182 134.487 19.9182C130.055 19.9182 126.792 16.8667 126.792 12.0104C126.792 7.15478 130.055 4.10327 134.487 4.10327C138.552 4.10327 141.312 6.67175 141.795 10.8434H136.806C136.572 9.02248 135.84 8.18984 134.487 8.18984C132.746 8.18984 131.886 9.37824 131.886 12.0104C131.886 14.6432 132.746 15.8316 134.487 15.8316Z" fill="#231F20"/>
<path d="M155.08 8.45517H151.036V19.6001H145.994V8.45517H141.95V4.42151H155.08V8.45517Z" fill="#231F20"/>
</svg>
