<svg width="34" height="24" viewBox="0 0 34 24" fill="none" xmlns="http://www.w3.org/2000/svg">
<g clip-path="url(#clip0_20_355)">
<path d="M14.5855 15.1424C12.6832 16.8176 11.612 18.9585 11.612 20.8797C11.612 21.4301 11.7219 21.961 11.9843 22.4225H3.24084C1.79792 22.4225 1.22534 21.8424 1.22534 20.7869C1.22534 17.5854 4.45472 13.7226 9.6194 13.7226C11.5769 13.7226 13.2563 14.2774 14.5855 15.1424ZM13.6161 7.48189C13.6161 9.99909 11.7609 11.9478 9.63085 11.9478C7.4894 11.9478 5.63423 9.99909 5.63423 7.50509C5.63423 5.02272 7.50086 3.14355 9.63085 3.14355C11.7494 3.14355 13.6161 4.97633 13.6161 7.48189Z" fill="black"/>
<path d="M22.8117 11.681C25.2738 11.681 27.3924 9.4538 27.3924 6.55384C27.3924 3.68869 25.2624 1.56592 22.8117 1.56592C20.3611 1.56592 18.2311 3.73508 18.2311 6.57705C18.2311 9.4538 20.3496 11.681 22.8117 11.681ZM15.6086 22.4224H30.0033C31.8012 22.4224 32.4425 21.9004 32.4425 20.8797C32.4425 17.8868 28.7436 13.7573 22.8003 13.7573C16.8683 13.7573 13.1694 17.8868 13.1694 20.8797C13.1694 21.9004 13.8107 22.4224 15.6086 22.4224Z" fill="black"/>
</g>
<defs>
<clipPath id="clip0_20_355">
<rect width="34" height="24" fill="white"/>
</clipPath>
</defs>
</svg>
