<?xml version="1.0" encoding="UTF-8"?><svg id="uuid-3d89cea9-d46d-4f87-919f-ce12be46b4ec" xmlns="http://www.w3.org/2000/svg" viewBox="0 0 164.4554 76.9004"><defs><style>.uuid-2d505591-418e-4a5b-be85-ad5933a22659{stroke:#fff;stroke-linecap:round;stroke-linejoin:round;stroke-width:13.79592px;}.uuid-2d505591-418e-4a5b-be85-ad5933a22659,.uuid-505e7a21-b48f-413f-af3a-26085b60544b{fill:#fff;}.uuid-72a0558b-7a79-49e3-8e61-a2803d4ab692{fill:#231f20;}</style></defs><g id="uuid-10965d17-b2ff-4e26-9dfd-9a35d966d849"><rect class="uuid-505e7a21-b48f-413f-af3a-26085b60544b" x="16.70007" y="12.20401" width="120.95997" height="57.79843"/><path class="uuid-2d505591-418e-4a5b-be85-ad5933a22659" d="M36.98455,17.11535h-8.99799c0-1.90945-1.50962-3.05904-4.03901-3.05904-2.05946,0-3.45917.76996-3.45917,1.84944,0,1.39971,1.3198,1.58982,4.98898,2.10966l.69956.08971c4.67916.67015,11.6474,1.65992,11.6474,8.89789,0,6.10857-4.96878,9.68804-13.59695,9.68804-9.0678,0-13.64656-3.96921-13.64656-10.47761h8.9977c0,2.09956,1.70983,3.31926,4.63906,3.31926,2.46939,0,4.12902-.85967,4.12902-2.08946,0-1.47991-1.39971-1.64983-5.08879-2.10966l-.99988-.13011c-4.41894-.54955-11.27727-1.40981-11.27727-8.51766,0-6.27849,5.33861-9.78785,13.11691-9.78785,8.13803,0,12.88699,3.8189,12.88699,10.21739Z"/><path class="uuid-2d505591-418e-4a5b-be85-ad5933a22659" d="M62.64685,15.09599h-7.61819v20.99502h-9.49763V15.09599h-7.61819v-7.59799h24.73401v7.59799Z"/><path class="uuid-2d505591-418e-4a5b-be85-ad5933a22659" d="M59.78832,36.09102l8.65817-28.59301h12.69688l8.51796,28.59301h-10.14758l-1.02958-4.96908h-7.68829l-1.05988,4.96908h-9.94767ZM76.99444,23.92378l-2.30958-11.10736-2.35948,11.10736h4.66906Z"/><path class="uuid-2d505591-418e-4a5b-be85-ad5933a22659" d="M102.39712,28.99267c2.5493,0,3.92881-1.56962,4.36904-4.99879h9.39812c-.91017,7.85821-6.10857,12.69718-13.76716,12.69718-8.34775,0-14.49672-5.74854-14.49672-14.89655s6.14897-14.89655,14.49672-14.89655c7.65859,0,12.85699,4.83897,13.76716,12.69718h-9.39812c-.44023-3.42917-1.81974-4.99879-4.36904-4.99879-3.27886,0-4.89898,2.23918-4.89898,7.19816s1.62012,7.19816,4.89898,7.19816Z"/><path class="uuid-2d505591-418e-4a5b-be85-ad5933a22659" d="M134.46682,21.6246l10.06768,14.46642h-11.29747l-6.07827-9.73795v9.73795h-9.49793V7.49801h9.49793v11.03725l6.07827-11.03725h10.59762l-9.36782,14.12659Z"/><path class="uuid-2d505591-418e-4a5b-be85-ad5933a22659" d="M6.89796,69.4024l8.65817-28.59301h12.69688l8.51796,28.59301h-10.14758l-1.02958-4.96908h-7.68829l-1.05988,4.96908H6.89796ZM24.10409,57.23516l-2.30958-11.10736-2.35948,11.10736h4.66906Z"/><path class="uuid-2d505591-418e-4a5b-be85-ad5933a22659" d="M67.4169,48.40737h-10.91724v3.65908h9.81756v7.19816h-9.81756v10.13778h-9.49793v-28.59301h20.41518v7.59799Z"/><path class="uuid-2d505591-418e-4a5b-be85-ad5933a22659" d="M65.30873,69.4024l8.65817-28.59301h12.69658l8.51825,28.59301h-10.14758l-1.02958-4.96908h-7.68829l-1.05988,4.96908h-9.94767ZM82.51485,57.23516l-2.30958-11.10736-2.35948,11.10736h4.66906Z"/><path class="uuid-2d505591-418e-4a5b-be85-ad5933a22659" d="M107.91753,62.30405c2.5493,0,3.92881-1.56962,4.36904-4.99879h9.39812c-.91017,7.85821-6.10857,12.69718-13.76716,12.69718-8.34775,0-14.49672-5.74854-14.49672-14.89655s6.14897-14.89655,14.49672-14.89655c7.65859,0,12.85699,4.83897,13.76716,12.69718h-9.39812c-.44023-3.42917-1.81974-4.99879-4.36904-4.99879-3.27886,0-4.89898,2.23918-4.89898,7.19816s1.62012,7.19816,4.89898,7.19816Z"/><path class="uuid-2d505591-418e-4a5b-be85-ad5933a22659" d="M146.71605,48.40737h-7.61819v20.99502h-9.49734v-20.99502h-7.61878v-7.59799h24.73431v7.59799Z"/><path class="uuid-72a0558b-7a79-49e3-8e61-a2803d4ab692" d="M36.97094,17.12531h-8.99333c0-1.9084-1.50881-3.05768-4.03699-3.05768-2.05834,0-3.45741.76957-3.45741,1.8486,0,1.39893,1.3191,1.58878,4.98639,2.10841l.69947.08999c4.67636.66942,11.64126,1.65875,11.64126,8.89347,0,6.1052-4.96636,9.6825-13.58986,9.6825-9.06315,0-13.63979-3.96688-13.63979-10.4721h8.99333c0,2.09854,1.70868,3.31749,4.63645,3.31749,2.46823,0,4.12698-.85928,4.12698-2.08838,0-1.47877-1.39893-1.64887-5.08625-2.10841l-.9992-.12977c-4.41669-.54981-11.27157-1.40909-11.27157-8.51376,0-6.2753,5.33605-9.78265,13.11015-9.78265,8.13392,0,12.88038,3.81709,12.88038,10.21229Z"/><path class="uuid-72a0558b-7a79-49e3-8e61-a2803d4ab692" d="M62.6341,15.10689h-7.61429v20.98426h-9.49293V15.10689h-7.61429v-7.5944h24.72151v7.5944Z"/><path class="uuid-72a0558b-7a79-49e3-8e61-a2803d4ab692" d="M59.78871,36.09114l8.65354-28.57866h12.69039l8.51362,28.57866h-10.14232l-1.02924-4.96636h-7.68425l-1.05914,4.96636h-9.9426ZM76.98578,23.9304l-2.30828-11.10175-2.35821,11.10175h4.66649Z"/><path class="uuid-72a0558b-7a79-49e3-8e61-a2803d4ab692" d="M102.3894,28.99634c2.54806,0,3.92711-1.56876,4.36676-4.99598h9.39293c-.90935,7.85393-6.10548,12.69025-13.75969,12.69025-8.34366,0-14.48906-5.74552-14.48906-14.88865s6.1454-14.88893,14.48906-14.88893c7.65421,0,12.85034,4.83631,13.75969,12.69053h-9.39293c-.43965-3.42751-1.8187-4.99626-4.36676-4.99626-3.27757,0-4.89626,2.23818-4.89626,7.19467,0,4.95621,1.61869,7.19438,4.89626,7.19438Z"/><path class="uuid-72a0558b-7a79-49e3-8e61-a2803d4ab692" d="M134.45791,21.63213l10.06249,14.45901h-11.2916l-6.0753-9.73272v9.73272h-9.49293V7.51249h9.49293v11.03178l6.0753-11.03178h10.59199l-9.36288,14.11965Z"/><path class="uuid-72a0558b-7a79-49e3-8e61-a2803d4ab692" d="M6.89857,69.40259l8.65354-28.57866h12.69039l8.51362,28.57866h-10.14232l-1.02924-4.96636h-7.68425l-1.05914,4.96636H6.89857ZM24.09564,57.24184l-2.30828-11.10175-2.35821,11.10175h4.66649Z"/><path class="uuid-72a0558b-7a79-49e3-8e61-a2803d4ab692" d="M67.4061,48.41833h-10.91175v3.65714h9.81255v7.19467h-9.81255v10.13245h-9.49293v-28.57866h20.40468v7.5944Z"/><path class="uuid-72a0558b-7a79-49e3-8e61-a2803d4ab692" d="M65.30939,69.40259l8.65354-28.57866h12.69039l8.51362,28.57866h-10.14232l-1.02924-4.96636h-7.68425l-1.05914,4.96636h-9.9426ZM82.50646,57.24184l-2.30828-11.10175-2.35821,11.10175h4.66649Z"/><path class="uuid-72a0558b-7a79-49e3-8e61-a2803d4ab692" d="M107.90995,62.30778c2.54806,0,3.92711-1.56876,4.36676-4.99598h9.39279c-.90921,7.85393-6.10534,12.69025-13.75955,12.69025-8.34366,0-14.48906-5.74552-14.48906-14.88865s6.1454-14.88893,14.48906-14.88893c7.65421,0,12.85034,4.83631,13.75955,12.69053h-9.39279c-.43965-3.42751-1.8187-4.99626-4.36676-4.99626-3.27757,0-4.89626,2.23818-4.89626,7.19467,0,4.95621,1.61869,7.19438,4.89626,7.19438Z"/><path class="uuid-72a0558b-7a79-49e3-8e61-a2803d4ab692" d="M146.70357,48.41833h-7.61415v20.98426h-9.49293v-20.98426h-7.61415v-7.5944h24.72123v7.5944Z"/><path class="uuid-505e7a21-b48f-413f-af3a-26085b60544b" d="M157.54191,3.59698h-1.26581v3.79861h-1.7172v-3.79861h-1.26296v-1.37486h4.24597v1.37486ZM164.4554,2.22212v5.17347h-1.71673v-3.74278l-.75312,3.74278h-1.51954l-.75312-3.74278v3.74278h-1.62788V2.22212h2.65088l.59822,3.1277.59869-3.1277h2.52259Z"/></g></svg>