<svg width="17" height="14" viewBox="0 0 17 14" fill="none" xmlns="http://www.w3.org/2000/svg">
<path d="M0 6.99998C0 7.23086 0.1007 7.44326 0.283791 7.61872L6.3624 13.7414C6.54549 13.9169 6.73774 14 6.95744 14C7.40602 14 7.76307 13.6675 7.76307 13.2058C7.76307 12.9842 7.68065 12.7625 7.53419 12.624L5.48356 10.5184L1.85837 7.18468L1.66613 7.63718L4.61388 7.82192H16.1943C16.6704 7.82192 17 7.4802 17 6.99998C17 6.51977 16.6704 6.17808 16.1943 6.17808H4.61388L1.66613 6.36278L1.85837 6.82453L5.48356 3.48152L7.53419 1.37599C7.68065 1.22823 7.76307 1.01583 7.76307 0.79419C7.76307 0.332453 7.40602 0 6.95744 0C6.73774 0 6.54549 0.0738784 6.34409 0.277044L0.283791 6.38125C0.1007 6.55671 0 6.76911 0 6.99998Z" fill="white" fill-opacity="0.85"/>
</svg>
